<svg width="38" height="38" viewBox="0 0 38 38" fill="none" xmlns="http://www.w3.org/2000/svg">
<path fill-rule="evenodd" clip-rule="evenodd" d="M19 38C29.4934 38 38 29.4934 38 19C38 8.50659 29.4934 0 19 0C8.50659 0 0 8.50659 0 19C0 29.4934 8.50659 38 19 38ZM26.2643 14.0737C25.9206 15.6672 23.7803 21.7428 23.1957 23.3404C23.0756 23.6688 22.9319 24.0954 22.7745 24.5628C22.3298 25.8834 21.7754 27.5295 21.3323 28.2045C20.1909 29.8115 18.9992 27.6856 18.4938 26.4375C17.3021 24.0667 17.0565 23.1632 16.4909 22.5595C15.8908 21.9191 14.9307 21.6161 12.0992 20.2569C10.2588 19.5572 9.45794 18.2096 11.1042 17.3266C11.7353 17.0213 14.2555 16.1541 15.703 15.656C16.1043 15.5179 16.4231 15.4082 16.5964 15.3467C16.7999 15.2744 17.2597 15.1064 17.8625 14.8861C19.6251 14.2419 22.6109 13.1507 23.9894 12.7004C25.8394 12.0962 26.6528 12.2721 26.2643 14.0737Z" fill="#FF7ABC"/>
</svg>
