<svg width="124" height="43" viewBox="0 0 124 43" fill="none" xmlns="http://www.w3.org/2000/svg">
<path fill-rule="evenodd" clip-rule="evenodd" d="M64.6419 15.6166C64.6419 15.544 64.6419 15.4713 64.6419 15.3987C64.6419 15.3261 64.7146 15.3261 64.7146 15.2534C64.7146 15.2534 64.7872 15.2534 64.7872 15.1808C64.7872 15.1808 64.8598 15.1808 64.8598 15.1082C64.9325 15.1082 65.0051 15.1082 65.0777 15.1082C65.1504 15.0355 65.223 15.0355 65.2957 15.0355C65.5136 15.0355 66.9663 15.0355 67.1115 15.0355C67.1842 15.0355 67.2568 15.0355 67.3294 15.1082C67.4021 15.1082 67.4747 15.1082 67.5473 15.1082C67.5473 15.1808 67.62 15.1808 67.62 15.1808C67.6926 15.2534 67.6926 15.2534 67.6926 15.2534C67.7653 15.3261 67.7653 15.3261 67.7653 15.3987C67.7653 15.4713 67.7653 15.544 67.7653 15.6166C67.6926 16.5609 66.7484 17.6504 66.2399 17.6504C65.5862 17.6504 64.7146 16.5609 64.6419 15.6166ZM68.6369 2.10643C70.1622 1.52534 71.7602 1.59798 72.3413 2.17906C72.7771 2.61487 72.8497 3.4865 72.7045 4.57603C72.4139 6.90036 71.5423 6.24664 72.6318 8.2078C73.4308 9.80577 73.9393 11.4764 74.0845 13.4375C74.0845 14.8902 73.8666 16.1977 73.5761 17.2872C73.2129 18.3767 72.7771 19.321 72.2686 20.12C71.7602 20.919 71.1791 21.6453 70.4528 22.1538C69.799 22.7349 69.1453 23.1707 68.419 23.5339C66.821 24.4055 64.9325 24.8413 62.8261 24.9866C61.2281 24.9866 59.848 24.8413 58.6132 24.5507C57.451 24.2602 56.4341 23.897 55.4899 23.3886C54.6183 22.8801 53.8919 22.3717 53.2382 21.718C52.6571 21.0643 52.1487 20.4832 51.7855 19.8295C50.8412 18.3041 50.2601 16.5609 50.1875 14.5997C50.1875 13.0017 50.3328 11.6217 50.6959 10.4595C50.8412 10.0237 50.9865 9.58787 51.2044 9.22469C51.5676 8.35307 51.9307 8.13516 52.0034 7.1909C52.1487 3.84967 54.9814 0 56.652 0C57.5237 0 58.3227 0.581083 58.9764 1.52534C60.2112 3.12332 59.2669 3.12332 61.3007 3.05068C61.8092 2.97805 62.3176 2.97805 62.8987 2.97805C63.5524 2.97805 64.1335 3.05068 64.7146 3.12332C67.3294 3.41386 66.4578 2.97805 68.6369 2.10643Z" fill="#FF7ABC"/>
<path d="M120.145 24.696C119.564 24.8413 118.983 24.9139 118.402 24.9865C117.893 24.9865 117.312 24.9865 116.731 24.9139C116.077 24.8413 115.496 24.6234 114.915 24.3328C110.92 22.299 111.065 22.8075 108.087 24.3328C107.506 24.6234 106.925 24.8413 106.271 24.9139C105.69 24.9865 105.109 24.9865 104.601 24.9865C104.02 24.9139 103.439 24.8413 102.858 24.696C102.422 24.5507 101.986 24.3328 101.695 24.1149C101.332 23.897 101.042 23.6065 100.824 23.3159C100.606 23.0254 100.388 22.7348 100.243 22.3717C100.097 22.0085 100.025 21.7179 99.9522 21.3548C99.7343 20.6284 99.6616 19.8294 99.7343 18.9578C99.8069 17.5051 100.025 16.1977 100.315 14.9629C100.606 13.7281 100.969 12.6385 101.405 11.6216C101.841 10.6774 102.349 9.73312 102.858 8.93413C103.439 8.13514 103.947 7.40878 104.456 6.75507C105.255 5.81081 105.981 5.08445 106.78 4.57601C107.579 4.06756 108.305 3.70438 109.032 3.41384C109.685 3.19593 110.266 3.05066 110.702 3.05066C111.138 3.05066 111.429 2.97803 111.501 2.97803C111.574 2.97803 111.864 3.05066 112.3 3.05066C112.736 3.05066 113.317 3.19593 113.971 3.41384C114.697 3.70438 115.424 4.06756 116.222 4.57601C117.021 5.08445 117.82 5.81081 118.547 6.75507C119.055 7.40878 119.636 8.13514 120.145 8.93413C120.653 9.73312 121.162 10.6774 121.598 11.6216C122.033 12.6385 122.396 13.7281 122.687 14.9629C122.978 16.1977 123.195 17.5051 123.268 18.9578C123.341 19.8294 123.268 20.6284 123.123 21.3548C123.05 21.7179 122.905 22.0085 122.76 22.3717C122.614 22.7348 122.396 23.0254 122.179 23.3159C121.961 23.6065 121.67 23.897 121.307 24.1149C121.016 24.3328 120.581 24.5507 120.145 24.696Z" fill="#FF7ABC"/>
<path d="M79.2443 11.8394C78.8085 11.7668 78.3727 11.6215 78.0095 11.4036C77.5737 11.2584 77.2105 10.9678 76.8473 10.6773C76.5568 10.3867 76.2663 10.0236 76.0484 9.58775C75.9031 9.22458 75.7578 8.71613 75.7578 8.13505C75.7578 7.11815 76.0484 6.31916 76.4842 5.66544C76.9926 5.08436 77.5011 4.64855 78.0821 4.35801C78.7359 3.99483 79.4622 3.77692 80.3338 3.63165C82.2224 3.26848 83.9656 3.05057 85.7815 3.05057C87.5247 2.97793 89.0501 2.97793 90.5028 3.05057C92.1008 3.12321 93.6261 3.34111 95.1514 3.55902C96.241 3.70429 97.04 4.06747 97.5484 4.50328C98.1295 4.86645 98.4927 5.30227 98.7832 5.73808C99.0738 6.31916 99.1464 6.82761 99.1464 7.40869C99.1464 8.06241 99.0738 8.64349 98.8559 9.0793C98.6379 9.58775 98.42 9.95093 98.0569 10.3141C97.7663 10.6046 97.4031 10.8952 97.04 11.1131C96.6042 11.331 96.241 11.4763 95.8778 11.6215C93.3356 12.3479 93.1177 12.5658 93.1903 15.907C93.2629 17.1418 93.1903 18.1587 93.1903 18.9577C93.045 19.902 92.8998 20.7736 92.6818 21.4273C92.4639 22.4442 92.1008 23.0979 91.5923 23.6064C91.0839 24.0422 90.5028 24.4054 89.9943 24.6233C89.4133 24.8412 88.6869 24.9864 87.9606 24.9864C87.1616 24.9864 86.4352 24.9138 85.7815 24.6959C85.1278 24.478 84.5467 24.1148 84.0382 23.679C83.4572 23.1706 83.0213 22.4442 82.8034 21.4273C82.5129 20.4104 82.4403 19.3209 82.3676 18.2314C82.3676 17.1418 82.3676 16.1249 82.4403 15.2533C82.6582 12.13 81.496 12.4205 79.2443 11.8394Z" fill="#FF7ABC"/>
<path d="M32.1014 2.97803C33.1183 2.97803 33.9899 3.05066 34.7162 3.26857C35.4426 3.41384 36.0237 3.70438 36.4595 3.99492C37.8396 4.93918 37.8396 6.8277 40.2365 5.01182C41.0355 4.3581 41.9071 3.99492 42.6335 3.92229C43.4325 3.77702 44.0862 3.84965 44.6673 3.99492C45.3936 4.21283 45.9747 4.50337 46.5558 5.01182C47.1369 5.44763 47.5001 5.95608 47.718 6.46452C47.9359 6.90034 48.0085 7.40878 48.0085 7.91723C48.0085 8.42568 47.8632 8.86149 47.6453 9.2973C47.5001 9.80575 47.2822 10.2416 46.9916 10.6047C44.9578 13.4375 44.522 13.3649 46.7011 16.1977C47.4274 17.0693 47.9359 17.7956 48.2264 18.522C48.5896 19.2483 48.8075 19.8294 48.8801 20.4105C48.9528 20.9916 48.9528 21.4274 48.8801 21.8632C48.7349 22.8801 48.1538 23.6065 47.1369 24.1876C46.12 24.696 45.1757 24.9865 44.3041 24.9865C43.4325 24.9865 42.5609 24.8413 41.8345 24.5507C41.1082 24.2602 40.4544 23.897 39.8734 23.3159C37.7669 21.5 37.1132 22.3717 35.6605 23.7517C35.0794 24.2602 34.2078 24.6234 33.0456 24.8413C32.3919 24.9139 31.8108 24.9865 31.3024 24.9139C30.7939 24.8413 30.2855 24.696 29.8497 24.4781C29.4865 24.2602 29.1233 24.0423 28.7601 23.7517C28.4696 23.4612 28.1791 23.1707 27.9612 22.8801C27.3801 22.0811 27.0169 21.2095 26.7264 20.1926C26.4358 19.2483 26.2905 18.1588 26.1453 16.9967C26 16.0524 26 14.8902 26 13.5102C26 12.2027 26.2179 10.75 26.4358 9.15203C26.7264 7.62669 27.1622 6.39189 27.8159 5.5929C28.397 4.72128 29.0507 4.14019 29.7044 3.70438C30.4308 3.26857 31.2297 3.05066 32.1014 2.97803Z" fill="#FF7ABC"/>
<path d="M117.232 28.4004C118.031 28.4004 118.685 28.4731 119.266 28.5457C119.847 28.6183 120.356 28.7636 120.792 28.9089C121.227 28.9815 121.591 29.1268 121.881 29.272C122.172 29.4173 122.39 29.5626 122.608 29.7805C122.971 30.1437 123.189 30.5068 123.189 30.9427C123.189 31.3785 123.116 31.7416 122.971 32.0322C122.753 32.3227 122.608 32.5406 122.317 32.7585C122.099 32.9765 121.736 33.1217 121.445 33.267C121.082 33.3396 120.719 33.4849 120.356 33.5575C117.45 34.066 119.629 34.2113 120.211 34.9376C120.428 35.1555 120.501 35.5187 120.501 35.8092C120.501 36.1724 120.356 36.5356 120.138 36.8261C119.629 37.4072 117.886 37.4798 119.92 37.9883C120.428 38.1336 120.864 38.2062 121.227 38.2788C121.591 38.4241 121.881 38.5694 122.099 38.7146C122.317 38.8599 122.535 39.0052 122.68 39.2231C123.043 39.5863 123.189 40.0221 123.189 40.4579C123.189 40.8211 123.116 41.1116 122.898 41.3295C122.753 41.5474 122.535 41.7653 122.244 41.9106C122.026 42.1285 121.736 42.2738 121.373 42.3464C121.01 42.4917 120.719 42.5643 120.356 42.7096C119.557 42.8549 118.613 42.9275 117.596 42.9275C116.797 43.0001 116.143 42.9275 115.489 42.8549C114.908 42.7822 114.4 42.7096 113.964 42.5643C113.455 42.419 113.092 42.2738 112.802 42.0559C112.439 41.9106 112.148 41.7653 112.003 41.5474C111.494 41.1116 111.131 40.6032 110.986 40.0221C110.841 39.1505 110.695 38.2062 110.695 37.1893C110.695 36.245 110.695 35.3734 110.768 34.5018C110.841 33.5575 110.913 32.6133 111.058 31.669C111.131 31.2332 111.276 30.7974 111.494 30.5068C111.712 30.1437 112.003 29.8531 112.293 29.5626C112.584 29.3447 112.947 29.1268 113.31 28.9815C113.673 28.8362 114.037 28.691 114.4 28.6183C115.271 28.4731 116.216 28.3278 117.232 28.4004Z" fill="#FF7ABC"/>
<path d="M74.0206 42.7821C73.6574 42.8547 73.2943 42.9273 72.9311 42.9273C72.6406 43 72.2774 43 71.9142 42.9273C71.551 42.8547 71.1878 42.7094 70.8247 42.5642C69.6625 41.9104 69.0814 41.3294 68.573 41.3294C67.9919 41.3294 67.6287 41.9831 66.6845 42.5642C66.3213 42.7094 65.8855 42.8547 65.5223 42.9273C65.1591 43 64.7959 43 64.5054 42.9273C64.1422 42.9273 63.779 42.8547 63.4885 42.7821C63.198 42.6368 62.9074 42.5642 62.7621 42.3463C62.5442 42.201 62.3263 42.0557 62.2537 41.8378C62.1084 41.6925 61.9632 41.4746 61.8905 41.2567C61.8179 41.0388 61.7452 40.8209 61.6726 40.603C61.6 40.0946 61.5273 39.5135 61.5273 38.9324C61.6 37.9881 61.7452 37.1165 61.8905 36.3175C62.1084 35.5185 62.3263 34.7922 62.6169 34.1385C62.8348 33.4847 63.1253 32.831 63.4885 32.3226C63.779 31.8141 64.1422 31.3057 64.4328 30.8699C64.8686 30.2162 65.377 29.7803 65.8855 29.4172C66.3213 29.054 66.8297 28.8361 67.1929 28.6908C67.6287 28.5455 67.9919 28.4729 68.2824 28.4003C68.5003 28.4003 68.7182 28.4003 68.7182 28.4003C68.7909 28.4003 68.9361 28.4003 69.2267 28.4003C69.4446 28.4729 69.8078 28.5455 70.2436 28.6908C70.6794 28.8361 71.1152 29.054 71.6237 29.4172C72.0595 29.7803 72.5679 30.2162 73.0764 30.8699C73.3669 31.3057 73.6574 31.8141 73.948 32.3226C74.3112 32.831 74.6017 33.4847 74.8922 34.1385C75.1102 34.7922 75.4007 35.5185 75.546 36.3175C75.7639 37.1165 75.8365 37.9881 75.9091 38.9324C75.9091 39.5135 75.9091 40.0946 75.7639 40.603C75.7639 40.8209 75.6912 41.0388 75.6186 41.2567C75.4733 41.4746 75.4007 41.6925 75.2554 41.8378C75.1102 42.0557 74.8922 42.201 74.747 42.3463C74.5291 42.5642 74.2385 42.6368 74.0206 42.7821Z" fill="#FF7ABC"/>
<path d="M102.994 36.7533C102.922 36.6081 102.849 36.4628 102.777 36.3175C102.777 36.0996 102.777 35.9543 102.849 35.7364C102.922 35.5185 103.14 35.3733 103.503 35.228C103.866 35.0827 104.302 35.0101 104.738 35.0101C105.246 34.9374 105.682 34.9374 106.19 35.0101C106.699 35.0101 107.135 35.0101 107.498 35.0827C107.716 35.1554 107.934 35.228 108.079 35.3006C108.297 35.3733 108.442 35.4459 108.515 35.4459C108.66 35.5912 108.733 35.6638 108.805 35.7364C108.951 35.9543 109.096 36.0996 109.168 36.3902C109.241 36.6081 109.314 36.8986 109.386 37.1891C109.386 37.4797 109.459 37.8429 109.459 38.1334C109.459 38.4966 109.459 38.7871 109.459 39.1503C109.459 39.8767 109.459 39.8767 109.386 40.7483C109.386 41.2567 109.241 41.6925 109.023 41.9831C108.733 42.2736 108.515 42.4915 108.224 42.6368C107.934 42.7821 107.57 42.8547 107.207 42.8547C106.917 42.8547 106.626 42.8547 106.336 42.7821C106.045 42.7094 105.755 42.5642 105.537 42.4915C104.956 42.201 104.738 41.9831 104.447 41.9831C104.302 41.9831 104.084 41.9831 103.866 42.201C103.648 42.4189 103.43 42.5642 102.994 42.7094C102.559 42.8547 102.123 42.9273 101.614 42.9273C101.033 43 100.452 42.9273 99.7985 42.8547C98.7816 42.6368 97.91 42.2736 97.111 41.6925C96.8204 41.4746 96.4572 41.1841 96.1667 40.8209C95.8762 40.4577 95.5856 40.0946 95.2951 39.5861C95.0772 39.0777 94.8593 38.4966 94.714 37.9155C94.5687 37.2618 94.4961 36.5354 94.4961 35.7364C94.4961 34.7195 94.714 33.7753 95.0772 32.831C95.2224 32.4678 95.4404 32.1047 95.6583 31.6689C95.9488 31.233 96.2393 30.8699 96.6025 30.5067C96.9657 30.1435 97.4741 29.7803 97.9826 29.4898C98.491 29.1266 99.0721 28.9087 99.7985 28.6182C100.67 28.4729 101.469 28.4003 102.341 28.4003C102.704 28.4003 103.067 28.4729 103.43 28.4729C103.866 28.5455 104.229 28.6908 104.665 28.8361C105.028 28.9087 105.464 29.1266 105.827 29.3445C106.19 29.5624 106.626 29.853 106.917 30.2162C107.207 30.5067 107.353 30.7972 107.498 31.0878C107.57 31.3783 107.643 31.6689 107.643 32.032C107.643 32.3952 107.57 32.831 107.353 33.2668C107.207 33.5574 106.917 33.8479 106.626 33.9932C106.336 34.1385 105.972 34.2111 105.464 34.2111C105.028 34.2837 104.447 34.1385 103.648 33.8479C103.14 33.7753 102.704 33.7026 102.268 33.7753C101.978 33.8479 101.614 33.9932 101.324 34.2111C101.106 34.429 100.961 34.8648 100.888 35.5185C100.961 36.027 101.033 36.3902 101.251 36.7533C101.324 36.8986 101.469 36.9712 101.542 37.1165C101.687 37.1891 101.905 37.3344 102.05 37.4071C102.268 37.4071 102.486 37.4797 102.777 37.4071C102.994 37.3344 103.212 37.1165 102.994 36.7533Z" fill="#FF7ABC"/>
<path d="M77.7194 31.6689C77.8647 31.0878 78.0826 30.5793 78.4457 30.0709C78.7363 29.7077 79.0995 29.3445 79.6079 28.9814C80.189 28.6182 80.8427 28.4003 81.6417 28.4003C82.368 28.4003 83.0218 28.4729 83.5302 28.6908C84.1113 28.9087 84.5471 29.1993 84.9103 29.5624C85.2008 29.853 85.4914 30.2888 85.7093 30.7246C85.9272 31.1604 86.0725 32.3952 86.4356 32.3952C86.8714 32.3952 86.8714 31.5236 87.0167 30.7246C87.162 30.2162 87.3799 29.9256 87.5252 29.6351C87.7431 29.4172 87.961 29.1993 88.1789 29.054C88.6873 28.6908 89.2684 28.5455 89.9221 28.5455C90.5758 28.5455 91.0843 28.6182 91.5201 28.8361C91.8833 29.1266 92.2465 29.3445 92.4644 29.7077C92.6823 29.9982 92.8275 30.4341 92.9728 30.8699C93.1907 32.032 93.336 33.1942 93.336 34.2837C93.336 35.3733 93.2633 36.3175 93.1907 37.1165C93.1181 38.1334 92.9728 39.005 92.7549 39.8767C92.6823 40.3125 92.537 40.7483 92.3917 41.0388C92.2465 41.3294 92.1012 41.6199 91.8833 41.8378C91.738 42.0557 91.5201 42.2736 91.3748 42.4189C91.1569 42.5642 90.939 42.6368 90.7937 42.7094C90.2853 42.9273 89.8495 43 89.341 42.9273C88.6147 43 87.961 42.8547 87.4525 42.5642C86.8714 42.3463 86.4356 41.9831 86.0725 41.5473C85.6366 41.1841 85.3461 40.7483 85.1282 40.2398C84.765 39.5861 84.8376 38.4966 84.2566 38.4966C83.8208 38.4966 83.8208 39.9493 83.6755 40.6756C83.6028 41.1115 83.3123 41.4746 83.167 41.7652C82.9491 42.0557 82.7312 42.2736 82.5133 42.4189C81.9322 42.8547 81.3512 43 80.6248 42.9273C80.0437 43 79.5353 42.8547 79.1721 42.6368C78.7363 42.4189 78.4457 42.1283 78.2278 41.8378C78.0099 41.5473 77.792 41.1115 77.7194 40.6756C77.4288 39.6587 77.2836 38.5692 77.2109 37.4797C77.2109 36.4628 77.2109 35.4459 77.2836 34.5743C77.3562 33.63 77.5015 32.6131 77.7194 31.6689Z" fill="#FF7ABC"/>
<path d="M53.6086 30.7246C53.6812 30.4341 53.8265 30.1435 53.9717 29.853C54.1896 29.5624 54.3349 29.3445 54.6254 29.1266C54.8434 28.9087 55.2065 28.6908 55.4971 28.6182C55.8603 28.4729 56.2234 28.4003 56.7319 28.4003C57.2403 28.4003 57.7488 28.6182 58.2572 28.9087C58.6204 29.1266 58.9836 29.5624 59.3467 30.0709C59.7099 30.652 59.9278 31.3783 60.0731 32.3952C60.2184 33.3395 60.291 34.2111 60.291 35.0827C60.291 35.9543 60.291 36.6807 60.291 37.3344C60.2184 38.0608 60.1457 38.7871 60.0731 39.4408C60.0005 40.0946 59.8552 40.6756 59.5647 41.1841C59.4194 41.4746 59.2741 41.6925 59.1288 41.8378C58.9836 42.0557 58.7657 42.2736 58.5478 42.4189C58.3299 42.6368 58.0393 42.7094 57.7488 42.8547C57.4582 42.9273 57.0951 43 56.7319 43C56.2961 43 55.9329 42.9273 55.5697 42.7821C55.2792 42.6368 54.9886 42.4189 54.7707 42.201C54.4802 41.9831 54.3349 41.7652 54.117 41.4746C53.9717 41.1841 53.8265 40.8935 53.7538 40.6756C53.1727 39.1503 53.4633 38.3513 52.8822 38.3513C52.3011 38.3513 52.5917 39.0777 51.9379 40.6756C51.7927 40.9662 51.6474 41.1841 51.5021 41.4746C51.2842 41.7652 51.0663 41.9831 50.8484 42.201C50.6305 42.4189 50.34 42.5642 49.9768 42.7094C49.6862 42.8547 49.3231 42.9273 48.8873 42.9273C48.3062 42.9273 47.7977 42.7821 47.3619 42.4915C47.144 42.3463 46.9261 42.201 46.7082 42.0557C46.4903 41.9104 46.345 41.6925 46.1997 41.402C45.9818 41.1115 45.8366 40.7483 45.7639 40.3851C45.6187 40.0219 45.546 39.5861 45.4734 39.0777C45.4008 37.9155 45.3281 36.8986 45.3281 36.027C45.3281 35.0827 45.3281 34.3564 45.4008 33.7026C45.4734 32.9763 45.546 32.3226 45.6187 31.8141C45.7639 31.1604 45.9092 30.5793 46.1997 30.0709C46.345 29.9256 46.4903 29.7077 46.6356 29.4898C46.7808 29.2719 46.9987 29.1266 47.2166 28.9087C47.4346 28.7634 47.6525 28.6182 47.943 28.5455C48.2335 28.4729 48.5241 28.4003 48.8873 28.4003C49.3231 28.4003 49.7589 28.4729 50.0494 28.6182C50.4126 28.7634 50.7031 28.9087 50.921 29.1266C51.2116 29.3445 51.4295 29.5624 51.5748 29.853C51.72 30.1435 51.8653 30.4341 52.0106 30.7246C52.5917 32.1773 52.0106 32.9763 52.7369 32.9763C53.3906 32.9763 53.0275 32.2499 53.6086 30.7246Z" fill="#FF7ABC"/>
<path d="M40.4589 34.2111C40.023 34.2111 39.5872 34.1385 39.2241 34.2111C38.9335 34.2837 38.7156 34.429 38.4251 34.5743C38.2072 34.7195 38.0619 35.0101 37.9893 35.4459C37.9893 35.8091 38.0619 36.0996 38.2072 36.3175C38.4251 36.5354 38.643 36.6807 39.0061 36.826C39.2967 36.9712 39.8051 37.0439 40.5315 36.9712C41.1126 36.8986 41.6937 36.8986 42.2021 37.0439C42.42 37.0439 42.6379 37.1165 42.8558 37.2618C43.0737 37.3344 43.2916 37.4797 43.4369 37.625C43.6548 37.7702 43.8001 37.9881 43.9454 38.2787C44.018 38.4966 44.1633 38.7871 44.1633 39.1503C44.2359 39.5135 44.1633 39.9493 44.0906 40.3125C44.018 40.603 43.8001 40.9662 43.5822 41.3294C43.3643 41.6925 43.0011 41.9831 42.4926 42.2736C41.9842 42.4915 41.3305 42.7094 40.6041 42.8547C40.023 42.9273 39.2241 43 38.2798 42.9273C37.4082 42.9273 36.3186 42.7821 35.0838 42.4189C34.2122 42.201 33.4132 41.7652 32.7595 41.1841C32.469 40.8935 32.1784 40.603 31.8879 40.2398C31.5973 39.8767 31.3794 39.5135 31.1615 39.0777C30.9436 38.5692 30.7984 38.0608 30.6531 37.4797C30.5804 36.8986 30.5078 36.2449 30.5078 35.5185C30.5804 34.429 30.7257 33.4847 31.0889 32.5405C31.3068 32.1773 31.5247 31.7415 31.7426 31.3783C32.0332 31.0151 32.3963 30.5793 32.7595 30.2888C33.1953 29.9256 33.6311 29.5624 34.2122 29.3445C34.7207 29.054 35.3744 28.8361 36.1007 28.6182C36.8271 28.4729 37.5534 28.4003 38.3524 28.4003C39.0061 28.4003 39.6599 28.4003 40.4589 28.5455C41.2578 28.6908 41.9842 28.9814 42.7106 29.3445C43.1464 29.6351 43.4369 29.9256 43.6548 30.2888C43.7274 30.4341 43.8001 30.652 43.8727 30.8699C43.9454 31.0151 44.018 31.233 44.018 31.451C44.0906 31.6689 44.018 31.9594 44.018 32.2499C43.9454 32.4678 43.8727 32.7584 43.7274 33.0489C43.5822 33.4121 43.3643 33.63 43.0737 33.8479C42.8558 33.9932 42.4926 34.1385 42.0568 34.2837C41.621 34.3564 41.1126 34.3564 40.4589 34.2111Z" fill="#FF7ABC"/>
<path d="M23.607 29.4899C23.8975 29.1993 24.188 28.9814 24.5512 28.7635C24.8418 28.6182 25.2049 28.473 25.5681 28.4003C26.0039 28.3277 26.3671 28.4003 26.8029 28.5456C27.2387 28.6182 27.6745 28.9088 28.183 29.2719C28.5462 29.6351 28.8367 29.9257 28.982 30.2888C29.1273 30.652 29.1999 31.0152 29.1999 31.3784C29.2725 31.7415 29.1999 32.1047 29.0546 32.4679C28.982 32.8311 28.8367 33.1216 28.6188 33.4848C27.8198 34.8649 27.1661 34.8649 27.1661 35.7365C27.1661 36.6081 27.9651 36.5355 28.7641 37.6976C28.9093 38.0608 29.1273 38.3514 29.1999 38.7145C29.3452 39.0051 29.4178 39.3683 29.4178 39.7314C29.3452 40.0946 29.2725 40.4578 29.1273 40.821C28.9093 41.2568 28.6188 41.62 28.2556 41.9831C27.6745 42.4916 27.1661 42.7821 26.585 42.8548C26.0766 43 25.5681 42.9274 25.1323 42.7821C24.6965 42.6369 24.2607 42.4189 23.8249 42.0558C22.4448 40.8936 22.3722 40.022 21.6458 40.022C20.9195 40.022 20.9195 40.821 19.9026 41.8379C19.612 42.1284 19.3215 42.3463 19.0309 42.5642C18.7404 42.7821 18.3772 42.9274 18.014 42.9274C17.6509 43 17.2151 42.9274 16.7792 42.7821C16.4161 42.7095 15.9803 42.4189 15.4718 41.9831C15.036 41.62 14.7455 41.2568 14.6002 40.821C14.3823 40.4578 14.3096 40.0946 14.3096 39.6588C14.3096 39.2956 14.3096 38.9324 14.4549 38.6419C14.6002 38.2787 14.8181 37.9156 14.9634 37.625C15.7623 36.4628 16.5613 36.3902 16.5613 35.6639C16.5613 34.7922 15.6897 34.8649 14.6728 33.4848C14.4549 33.1943 14.237 32.9037 14.0917 32.5405C13.9465 32.1774 13.8738 31.8142 13.9465 31.451C13.9465 31.0878 14.0191 30.7247 14.237 30.3615C14.4549 29.9983 14.8181 29.6351 15.3265 29.1993C15.7623 28.9088 16.2708 28.6909 16.634 28.5456C17.0698 28.473 17.5056 28.4003 17.8688 28.473C18.3046 28.5456 18.6678 28.6909 19.0309 28.9088C19.3941 29.1267 19.6847 29.3446 19.9752 29.6351C21.1374 30.5794 21.0647 31.3057 21.7184 31.3784C22.4448 31.3784 22.6627 30.5067 23.607 29.4899Z" fill="#FF7ABC"/>
<path d="M6.53718 28.4007C7.33617 28.4007 7.98989 28.4733 8.57097 28.5459C9.15205 28.6186 9.6605 28.7638 10.0963 28.9091C10.5321 28.9818 10.8953 29.127 11.1858 29.2723C11.4764 29.4176 11.6943 29.5628 11.9122 29.7807C12.2754 30.1439 12.4933 30.5071 12.4933 30.9429C12.4933 31.3787 12.4206 31.7419 12.2754 32.0324C12.0575 32.323 11.9122 32.5409 11.6217 32.7588C11.4038 32.9767 11.0406 33.122 10.75 33.2672C10.3869 33.3399 10.0237 33.4851 9.6605 33.5578C6.75509 34.0662 8.93415 34.2115 9.51523 34.9378C9.73314 35.1558 9.80577 35.5189 9.80577 35.8095C9.80577 36.1727 9.6605 36.5358 9.4426 36.8264C8.93415 37.4075 7.1909 37.4801 9.22469 37.9885C9.73314 38.1338 10.1689 38.2064 10.5321 38.2791C10.8953 38.4243 11.1858 38.5696 11.4038 38.7149C11.6217 38.8602 11.8396 39.0054 11.9848 39.2233C12.348 39.5865 12.4933 40.0223 12.4933 40.4581C12.4933 40.8213 12.4206 41.1119 12.2027 41.3298C12.0575 41.5477 11.8396 41.7656 11.549 41.9108C11.3311 42.1287 11.0406 42.274 10.6774 42.3467C10.3142 42.4919 10.0237 42.5646 9.6605 42.7098C8.86151 42.8551 7.91725 42.9277 6.90036 42.9277C6.10137 43.0004 5.44765 42.9277 4.79393 42.8551C4.21285 42.7825 3.7044 42.7098 3.26859 42.5646C2.83278 42.4193 2.39697 42.274 2.10643 42.0561C1.74325 41.9108 1.45271 41.7656 1.30744 41.5477C0.798989 41.1119 0.435812 40.6034 0.290541 40.0223C0.145271 39.1507 0 38.2064 0 37.1895C0 36.2453 0 35.3737 0.0726354 34.502C0.145271 33.5578 0.217906 32.6135 0.363177 31.6693C0.435812 31.2334 0.581083 30.7976 0.798989 30.5071C1.01689 30.1439 1.30744 29.8534 1.59798 29.5628C1.88852 29.3449 2.2517 29.127 2.61487 28.9818C2.97805 28.8365 3.34123 28.6912 3.7044 28.6186C4.57603 28.4733 5.52029 28.328 6.53718 28.4007Z" fill="#FF7ABC"/>
<path d="M20.4105 24.696C19.9021 24.8413 19.321 24.9139 18.6673 24.9865C18.1588 24.9865 17.6504 24.9865 16.9967 24.9139C16.4156 24.8413 15.7619 24.6234 15.1808 24.3328C13.2923 23.3886 12.348 22.9528 11.549 23.0254C10.6048 23.0254 9.95104 23.5338 8.35307 24.3328C7.77198 24.6234 7.1909 24.8413 6.53718 24.9139C5.9561 24.9865 5.37502 24.9865 4.86657 24.9865C4.28549 24.9139 3.7044 24.8413 3.12332 24.696C2.68751 24.5507 2.2517 24.3328 1.96115 24.1149C1.59798 23.897 1.30744 23.6065 1.08953 23.3159C0.871624 23.0254 0.726354 22.7348 0.581083 22.3717C0.435812 22.0085 0.290541 21.7179 0.217906 21.3548C0.0726354 20.6284 0 19.8294 0 18.9578C0.0726354 17.5051 0.290541 16.1977 0.581083 14.9629C0.871624 13.7281 1.2348 12.6385 1.67061 11.6216C2.17906 10.6774 2.61487 9.73312 3.19596 8.93413C3.7044 8.13514 4.21285 7.40878 4.7213 6.75507C5.52029 5.81081 6.24664 5.08445 7.04563 4.57601C7.84462 4.06756 8.64361 3.70438 9.29733 3.41384C9.95104 3.19593 10.5321 3.05066 10.9679 3.05066C11.4764 3.05066 11.6943 2.97803 11.7669 2.97803C11.8396 2.97803 12.1301 3.05066 12.5659 3.05066C13.0017 3.05066 13.5828 3.19593 14.2365 3.41384C14.9629 3.70438 15.6892 4.06756 16.4882 4.57601C17.2872 5.08445 18.0862 5.81081 18.8852 6.75507C19.3936 7.40878 19.9021 8.13514 20.4105 8.93413C20.919 9.73312 21.4274 10.6774 21.8632 11.6216C22.2991 12.6385 22.6622 13.7281 23.0254 14.9629C23.3159 16.1977 23.4612 17.5051 23.5339 18.9578C23.6065 19.8294 23.5339 20.6284 23.3886 21.3548C23.3159 21.7179 23.1707 22.0085 23.0254 22.3717C22.8801 22.7348 22.7349 23.0254 22.4443 23.3159C22.2264 23.6065 21.9359 23.897 21.6453 24.1149C21.2822 24.3328 20.919 24.5507 20.4105 24.696Z" fill="#FF7ABC"/>
</svg>
