<?xml version="1.0" encoding="utf-8"?>
<!-- Generator: Adobe Illustrator 20.1.0, SVG Export Plug-In . SVG Version: 6.00 Build 0)  -->
<svg version="1.1" id="Слой_1" xmlns="http://www.w3.org/2000/svg" xmlns:xlink="http://www.w3.org/1999/xlink" x="0px" y="0px"
	 viewBox="0 0 124 43" style="enable-background:new 0 0 124 43;" xml:space="preserve">
<style type="text/css">
	.st0{fill:#866BA9;}
</style>
<path class="st0" d="M64.6,15.6c0-0.1,0-0.1,0-0.2c0-0.1,0.1-0.1,0.1-0.1c0,0,0.1,0,0.1-0.1c0,0,0.1,0,0.1-0.1c0.1,0,0.1,0,0.2,0
	c0.1-0.1,0.1-0.1,0.2-0.1c0.2,0,1.7,0,1.8,0c0.1,0,0.1,0,0.2,0.1c0.1,0,0.1,0,0.2,0c0,0.1,0.1,0.1,0.1,0.1c0.1,0.1,0.1,0.1,0.1,0.1
	c0.1,0.1,0.1,0.1,0.1,0.1c0,0.1,0,0.1,0,0.2c-0.1,0.9-1,2-1.5,2C65.6,17.7,64.7,16.6,64.6,15.6z M68.6,2.1c1.5-0.6,3.1-0.5,3.7,0.1
	c0.4,0.4,0.5,1.3,0.4,2.4c-0.3,2.3-1.2,1.7-0.1,3.6c0.8,1.6,1.3,3.3,1.5,5.2c0,1.5-0.2,2.8-0.5,3.8c-0.4,1.1-0.8,2-1.3,2.8
	c-0.5,0.8-1.1,1.5-1.8,2c-0.7,0.6-1.3,1-2,1.4c-1.6,0.9-3.5,1.3-5.6,1.5c-1.6,0-3-0.1-4.2-0.4c-1.2-0.3-2.2-0.7-3.1-1.2
	c-0.9-0.5-1.6-1-2.3-1.7c-0.6-0.7-1.1-1.2-1.5-1.9c-0.9-1.5-1.5-3.3-1.6-5.2c0-1.6,0.1-3,0.5-4.1c0.1-0.4,0.3-0.9,0.5-1.2
	c0.4-0.9,0.7-1.1,0.8-2C52.1,3.8,55,0,56.7,0c0.9,0,1.7,0.6,2.3,1.5c1.2,1.6,0.3,1.6,2.3,1.5C61.8,3,62.3,3,62.9,3
	c0.7,0,1.2,0.1,1.8,0.1C67.3,3.4,66.5,3,68.6,2.1z"/>
<path class="st0" d="M120.1,24.7c-0.6,0.1-1.2,0.2-1.7,0.3c-0.5,0-1.1,0-1.7-0.1c-0.7-0.1-1.2-0.3-1.8-0.6c-4-2-3.8-1.5-6.8,0
	c-0.6,0.3-1.2,0.5-1.8,0.6c-0.6,0.1-1.2,0.1-1.7,0.1c-0.6-0.1-1.2-0.1-1.7-0.3c-0.4-0.1-0.9-0.4-1.2-0.6c-0.4-0.2-0.7-0.5-0.9-0.8
	c-0.2-0.3-0.4-0.6-0.6-0.9c-0.1-0.4-0.2-0.7-0.3-1c-0.2-0.7-0.3-1.5-0.2-2.4c0.1-1.5,0.3-2.8,0.6-4c0.3-1.2,0.7-2.3,1.1-3.3
	c0.4-0.9,0.9-1.9,1.5-2.7c0.6-0.8,1.1-1.5,1.6-2.2c0.8-0.9,1.5-1.7,2.3-2.2c0.8-0.5,1.5-0.9,2.3-1.2c0.7-0.2,1.2-0.4,1.7-0.4
	c0.4,0,0.7-0.1,0.8-0.1c0.1,0,0.4,0.1,0.8,0.1c0.4,0,1,0.1,1.7,0.4c0.7,0.3,1.5,0.7,2.3,1.2c0.8,0.5,1.6,1.2,2.3,2.2
	c0.5,0.7,1.1,1.4,1.6,2.2c0.5,0.8,1,1.7,1.5,2.7c0.4,1,0.8,2.1,1.1,3.3c0.3,1.2,0.5,2.5,0.6,4c0.1,0.9,0,1.7-0.1,2.4
	c-0.1,0.4-0.2,0.7-0.4,1c-0.1,0.4-0.4,0.7-0.6,0.9c-0.2,0.3-0.5,0.6-0.9,0.8C121,24.3,120.6,24.6,120.1,24.7z"/>
<path class="st0" d="M79.2,11.8c-0.4-0.1-0.9-0.2-1.2-0.4c-0.4-0.1-0.8-0.4-1.2-0.7c-0.3-0.3-0.6-0.7-0.8-1.1
	c-0.1-0.4-0.3-0.9-0.3-1.5c0-1,0.3-1.8,0.7-2.5c0.5-0.6,1-1,1.6-1.3c0.7-0.4,1.4-0.6,2.3-0.7c1.9-0.4,3.6-0.6,5.4-0.6
	c1.7-0.1,3.3-0.1,4.7,0c1.6,0.1,3.1,0.3,4.6,0.5c1.1,0.1,1.9,0.5,2.4,0.9c0.6,0.4,0.9,0.8,1.2,1.2c0.3,0.6,0.4,1.1,0.4,1.7
	c0,0.7-0.1,1.2-0.3,1.7c-0.2,0.5-0.4,0.9-0.8,1.2c-0.3,0.3-0.7,0.6-1,0.8c-0.4,0.2-0.8,0.4-1.2,0.5c-2.5,0.7-2.8,0.9-2.7,4.3
	c0.1,1.2,0,2.3,0,3.1c-0.1,0.9-0.3,1.8-0.5,2.5c-0.2,1-0.6,1.7-1.1,2.2c-0.5,0.4-1.1,0.8-1.6,1c-0.6,0.2-1.3,0.4-2,0.4
	c-0.8,0-1.5-0.1-2.2-0.3s-1.2-0.6-1.7-1c-0.6-0.5-1-1.2-1.2-2.3c-0.3-1-0.4-2.1-0.4-3.2c0-1.1,0-2.1,0.1-3
	C82.7,12.1,81.5,12.4,79.2,11.8z"/>
<path class="st0" d="M32.1,3c1,0,1.9,0.1,2.6,0.3C35.4,3.4,36,3.7,36.5,4c1.4,0.9,1.4,2.8,3.8,1c0.8-0.7,1.7-1,2.4-1.1
	c0.8-0.1,1.5-0.1,2,0.1c0.7,0.2,1.3,0.5,1.9,1c0.6,0.4,0.9,0.9,1.2,1.5C47.9,6.9,48,7.4,48,7.9s-0.1,0.9-0.4,1.4
	c-0.1,0.5-0.4,0.9-0.7,1.3c-2,2.8-2.5,2.8-0.3,5.6c0.7,0.9,1.2,1.6,1.5,2.3c0.4,0.7,0.6,1.3,0.7,1.9c0.1,0.6,0.1,1,0,1.5
	c-0.1,1-0.7,1.7-1.7,2.3c-1,0.5-2,0.8-2.8,0.8s-1.7-0.1-2.5-0.4c-0.7-0.3-1.4-0.7-2-1.2c-2.1-1.8-2.8-0.9-4.2,0.4
	c-0.6,0.5-1.5,0.9-2.6,1.1c-0.7,0.1-1.2,0.1-1.7,0.1c-0.5-0.1-1-0.2-1.5-0.4c-0.4-0.2-0.7-0.4-1.1-0.7c-0.3-0.3-0.6-0.6-0.8-0.9
	c-0.6-0.8-0.9-1.7-1.2-2.7c-0.3-0.9-0.4-2-0.6-3.2C26,16.1,26,14.9,26,13.5c0-1.3,0.2-2.8,0.4-4.4c0.3-1.5,0.7-2.8,1.4-3.6
	c0.6-0.9,1.2-1.5,1.9-1.9C30.4,3.3,31.2,3.1,32.1,3z"/>
<path class="st0" d="M117.2,28.4c0.8,0,1.5,0.1,2,0.1s1.1,0.2,1.5,0.4c0.4,0.1,0.8,0.2,1.1,0.4c0.3,0.1,0.5,0.3,0.7,0.5
	c0.4,0.4,0.6,0.7,0.6,1.2c0,0.4-0.1,0.8-0.2,1.1c-0.2,0.3-0.4,0.5-0.7,0.7c-0.2,0.2-0.6,0.4-0.9,0.5c-0.4,0.1-0.7,0.2-1.1,0.3
	c-2.9,0.5-0.7,0.7-0.1,1.4c0.2,0.2,0.3,0.6,0.3,0.9c0,0.4-0.1,0.7-0.4,1c-0.5,0.6-2.3,0.7-0.2,1.2c0.5,0.1,0.9,0.2,1.3,0.3
	c0.4,0.1,0.7,0.3,0.9,0.4c0.2,0.1,0.4,0.3,0.6,0.5c0.4,0.4,0.5,0.8,0.5,1.2c0,0.4-0.1,0.7-0.3,0.9c-0.1,0.2-0.4,0.4-0.7,0.6
	c-0.2,0.2-0.5,0.4-0.9,0.4c-0.4,0.1-0.7,0.2-1,0.4c-0.8,0.1-1.7,0.2-2.8,0.2c-0.8,0.1-1.5,0-2.1-0.1c-0.6-0.1-1.1-0.1-1.5-0.3
	c-0.5-0.1-0.9-0.3-1.2-0.5c-0.4-0.1-0.7-0.3-0.8-0.5c-0.5-0.4-0.9-0.9-1-1.5c-0.1-0.9-0.3-1.8-0.3-2.8c0-0.9,0-1.8,0.1-2.7
	c0.1-0.9,0.1-1.9,0.3-2.8c0.1-0.4,0.2-0.9,0.4-1.2c0.2-0.4,0.5-0.7,0.8-0.9c0.3-0.2,0.7-0.4,1-0.6s0.7-0.3,1.1-0.4
	C115.3,28.5,116.2,28.3,117.2,28.4z"/>
<path class="st0" d="M74,42.8c-0.4,0.1-0.7,0.1-1.1,0.1c-0.3,0.1-0.7,0.1-1,0c-0.4-0.1-0.7-0.2-1.1-0.4c-1.2-0.7-1.7-1.2-2.3-1.2
	c-0.6,0-0.9,0.7-1.9,1.2c-0.4,0.1-0.8,0.3-1.2,0.4c-0.4,0.1-0.7,0.1-1,0c-0.4,0-0.7-0.1-1-0.1c-0.3-0.1-0.6-0.2-0.7-0.4
	c-0.2-0.1-0.4-0.3-0.5-0.5c-0.1-0.1-0.3-0.4-0.4-0.6c-0.1-0.2-0.1-0.4-0.2-0.7c-0.1-0.5-0.1-1.1-0.1-1.7c0.1-0.9,0.2-1.8,0.4-2.6
	c0.2-0.8,0.4-1.5,0.7-2.2c0.2-0.7,0.5-1.3,0.9-1.8c0.3-0.5,0.7-1,0.9-1.5c0.4-0.7,0.9-1.1,1.5-1.5c0.4-0.4,0.9-0.6,1.3-0.7
	c0.4-0.1,0.8-0.2,1.1-0.3c0.2,0,0.4,0,0.4,0c0.1,0,0.2,0,0.5,0c0.2,0.1,0.6,0.1,1,0.3s0.9,0.4,1.4,0.7c0.4,0.4,0.9,0.8,1.5,1.5
	c0.3,0.4,0.6,0.9,0.9,1.5c0.4,0.5,0.7,1.2,0.9,1.8c0.2,0.7,0.5,1.4,0.7,2.2c0.2,0.8,0.3,1.7,0.4,2.6c0,0.6,0,1.2-0.1,1.7
	c0,0.2-0.1,0.4-0.1,0.7c-0.1,0.2-0.2,0.4-0.4,0.6c-0.1,0.2-0.4,0.4-0.5,0.5C74.5,42.6,74.2,42.6,74,42.8z"/>
<path class="st0" d="M103,36.8c-0.1-0.1-0.1-0.3-0.2-0.4c0-0.2,0-0.4,0.1-0.6c0.1-0.2,0.3-0.4,0.7-0.5c0.4-0.1,0.8-0.2,1.2-0.2
	c0.5-0.1,0.9-0.1,1.5,0c0.5,0,0.9,0,1.3,0.1c0.2,0.1,0.4,0.1,0.6,0.2c0.2,0.1,0.4,0.1,0.4,0.1c0.1,0.1,0.2,0.2,0.3,0.3
	c0.1,0.2,0.3,0.4,0.4,0.7c0.1,0.2,0.1,0.5,0.2,0.8c0,0.3,0.1,0.7,0.1,0.9c0,0.4,0,0.7,0,1c0,0.7,0,0.7-0.1,1.6
	c0,0.5-0.1,0.9-0.4,1.2c-0.3,0.3-0.5,0.5-0.8,0.7c-0.3,0.1-0.7,0.2-1,0.2c-0.3,0-0.6,0-0.9-0.1c-0.3-0.1-0.6-0.2-0.8-0.3
	c-0.6-0.3-0.8-0.5-1.1-0.5c-0.1,0-0.4,0-0.6,0.2c-0.2,0.2-0.4,0.4-0.9,0.5c-0.4,0.1-0.9,0.2-1.4,0.2c-0.6,0.1-1.2,0-1.8-0.1
	c-1-0.2-1.9-0.6-2.7-1.2c-0.3-0.2-0.7-0.5-0.9-0.9c-0.3-0.4-0.6-0.7-0.9-1.2c-0.2-0.5-0.4-1.1-0.6-1.7c-0.1-0.7-0.2-1.4-0.2-2.2
	c0-1,0.2-2,0.6-2.9c0.1-0.4,0.4-0.7,0.6-1.2c0.3-0.4,0.6-0.8,0.9-1.2c0.4-0.4,0.9-0.7,1.4-1c0.5-0.4,1.1-0.6,1.8-0.9
	c0.9-0.1,1.7-0.2,2.5-0.2c0.4,0,0.7,0.1,1.1,0.1c0.4,0.1,0.8,0.2,1.2,0.4c0.4,0.1,0.8,0.3,1.2,0.5c0.4,0.2,0.8,0.5,1.1,0.9
	c0.3,0.3,0.4,0.6,0.6,0.9c0.1,0.3,0.1,0.6,0.1,0.9c0,0.4-0.1,0.8-0.3,1.2c-0.1,0.3-0.4,0.6-0.7,0.7c-0.3,0.1-0.7,0.2-1.2,0.2
	c-0.4,0.1-1-0.1-1.8-0.4c-0.5-0.1-0.9-0.1-1.4-0.1c-0.3,0.1-0.7,0.2-0.9,0.4c-0.2,0.2-0.4,0.7-0.4,1.3c0.1,0.5,0.1,0.9,0.4,1.2
	c0.1,0.1,0.2,0.2,0.3,0.4c0.1,0.1,0.4,0.2,0.5,0.3c0.2,0,0.4,0.1,0.7,0C103,37.3,103.2,37.1,103,36.8z"/>
<path class="st0" d="M77.7,31.7c0.1-0.6,0.4-1.1,0.7-1.6c0.3-0.4,0.7-0.7,1.2-1.1c0.6-0.4,1.2-0.6,2-0.6c0.7,0,1.4,0.1,1.9,0.3
	c0.6,0.2,1,0.5,1.4,0.9c0.3,0.3,0.6,0.7,0.8,1.2c0.2,0.4,0.4,1.7,0.7,1.7c0.4,0,0.4-0.9,0.6-1.7c0.1-0.5,0.4-0.8,0.5-1.1
	c0.2-0.2,0.4-0.4,0.7-0.6c0.5-0.4,1.1-0.5,1.7-0.5c0.7,0,1.2,0.1,1.6,0.3c0.4,0.3,0.7,0.5,0.9,0.9c0.2,0.3,0.4,0.7,0.5,1.2
	c0.2,1.2,0.4,2.3,0.4,3.4c0,1.1-0.1,2-0.1,2.8c-0.1,1-0.2,1.9-0.4,2.8c-0.1,0.4-0.2,0.9-0.4,1.2c-0.1,0.3-0.3,0.6-0.5,0.8
	c-0.1,0.2-0.4,0.4-0.5,0.6c-0.2,0.1-0.4,0.2-0.6,0.3c-0.5,0.2-0.9,0.3-1.5,0.2c-0.7,0.1-1.4-0.1-1.9-0.4c-0.6-0.2-1-0.6-1.4-1
	c-0.4-0.4-0.7-0.8-0.9-1.3c-0.4-0.7-0.3-1.7-0.9-1.7c-0.4,0-0.4,1.5-0.6,2.2c-0.1,0.4-0.4,0.8-0.5,1.1c-0.2,0.3-0.4,0.5-0.7,0.7
	c-0.6,0.4-1.2,0.6-1.9,0.5c-0.6,0.1-1.1-0.1-1.5-0.3c-0.4-0.2-0.7-0.5-0.9-0.8c-0.2-0.3-0.4-0.7-0.5-1.2c-0.3-1-0.4-2.1-0.5-3.2
	c0-1,0-2,0.1-2.9C77.4,33.6,77.5,32.6,77.7,31.7z"/>
<path class="st0" d="M53.6,30.7c0.1-0.3,0.2-0.6,0.4-0.9c0.2-0.3,0.4-0.5,0.7-0.7c0.2-0.2,0.6-0.4,0.9-0.5c0.4-0.1,0.7-0.2,1.2-0.2
	c0.5,0,1,0.2,1.5,0.5c0.4,0.2,0.7,0.7,1.1,1.2c0.4,0.6,0.6,1.3,0.7,2.3c0.1,0.9,0.2,1.8,0.2,2.7c0,0.9,0,1.6,0,2.3
	c-0.1,0.7-0.1,1.5-0.2,2.1c-0.1,0.7-0.2,1.2-0.5,1.7c-0.1,0.3-0.3,0.5-0.4,0.7c-0.1,0.2-0.4,0.4-0.6,0.6c-0.2,0.2-0.5,0.3-0.8,0.4
	c-0.3,0.1-0.7,0.1-1,0.1c-0.4,0-0.8-0.1-1.2-0.2c-0.3-0.1-0.6-0.4-0.8-0.6c-0.3-0.2-0.4-0.4-0.7-0.7c-0.1-0.3-0.3-0.6-0.4-0.8
	c-0.6-1.5-0.3-2.3-0.9-2.3c-0.6,0-0.3,0.7-0.9,2.3c-0.1,0.3-0.3,0.5-0.4,0.8c-0.2,0.3-0.4,0.5-0.7,0.7s-0.5,0.4-0.9,0.5
	c-0.3,0.1-0.7,0.2-1.1,0.2c-0.6,0-1.1-0.1-1.5-0.4c-0.2-0.1-0.4-0.3-0.7-0.4c-0.2-0.1-0.4-0.4-0.5-0.7c-0.2-0.3-0.4-0.7-0.4-1
	c-0.1-0.4-0.2-0.8-0.3-1.3c-0.1-1.2-0.1-2.2-0.1-3.1c0-0.9,0-1.7,0.1-2.3c0.1-0.7,0.1-1.4,0.2-1.9c0.1-0.7,0.3-1.2,0.6-1.7
	c0.1-0.1,0.3-0.4,0.4-0.6c0.1-0.2,0.4-0.4,0.6-0.6c0.2-0.1,0.4-0.3,0.7-0.4c0.3-0.1,0.6-0.1,0.9-0.1c0.4,0,0.9,0.1,1.2,0.2
	c0.4,0.1,0.7,0.3,0.9,0.5c0.3,0.2,0.5,0.4,0.7,0.7c0.1,0.3,0.3,0.6,0.4,0.9c0.6,1.5,0,2.3,0.7,2.3C53.4,33,53,32.2,53.6,30.7z"/>
<path class="st0" d="M40.5,34.2c-0.4,0-0.9-0.1-1.2,0c-0.3,0.1-0.5,0.2-0.8,0.4c-0.2,0.1-0.4,0.4-0.4,0.9c0,0.4,0.1,0.7,0.2,0.9
	c0.2,0.2,0.4,0.4,0.8,0.5c0.3,0.1,0.8,0.2,1.5,0.1c0.6-0.1,1.2-0.1,1.7,0.1c0.2,0,0.4,0.1,0.7,0.2c0.2,0.1,0.4,0.2,0.6,0.4
	c0.2,0.1,0.4,0.4,0.5,0.7c0.1,0.2,0.2,0.5,0.2,0.9c0.1,0.4,0,0.8-0.1,1.2c-0.1,0.3-0.3,0.7-0.5,1c-0.2,0.4-0.6,0.7-1.1,0.9
	c-0.5,0.2-1.2,0.4-1.9,0.6c-0.6,0.1-1.4,0.1-2.3,0.1c-0.9,0-2-0.1-3.2-0.5c-0.9-0.2-1.7-0.7-2.3-1.2c-0.3-0.3-0.6-0.6-0.9-0.9
	c-0.3-0.4-0.5-0.7-0.7-1.2c-0.2-0.5-0.4-1-0.5-1.6c-0.1-0.6-0.1-1.2-0.1-2c0.1-1.1,0.2-2,0.6-3c0.2-0.4,0.4-0.8,0.7-1.2
	c0.3-0.4,0.7-0.8,1-1.1c0.4-0.4,0.9-0.7,1.5-0.9c0.5-0.3,1.2-0.5,1.9-0.7c0.7-0.1,1.5-0.2,2.3-0.2c0.7,0,1.3,0,2.1,0.1
	c0.8,0.1,1.5,0.4,2.3,0.8c0.4,0.3,0.7,0.6,0.9,0.9c0.1,0.1,0.1,0.4,0.2,0.6c0.1,0.1,0.1,0.4,0.1,0.6c0.1,0.2,0,0.5,0,0.8
	c-0.1,0.2-0.1,0.5-0.3,0.8c-0.1,0.4-0.4,0.6-0.7,0.8c-0.2,0.1-0.6,0.3-1,0.4C41.6,34.4,41.1,34.4,40.5,34.2z"/>
<path class="st0" d="M23.6,29.5c0.3-0.3,0.6-0.5,0.9-0.7c0.3-0.1,0.7-0.3,1-0.4c0.4-0.1,0.8,0,1.2,0.1c0.4,0.1,0.9,0.4,1.4,0.7
	c0.4,0.4,0.7,0.7,0.8,1c0.1,0.4,0.2,0.7,0.2,1.1c0.1,0.4,0,0.7-0.1,1.1c-0.1,0.4-0.2,0.7-0.4,1c-0.8,1.4-1.5,1.4-1.5,2.3
	s0.8,0.8,1.6,2c0.1,0.4,0.4,0.7,0.4,1c0.1,0.3,0.2,0.7,0.2,1c-0.1,0.4-0.1,0.7-0.3,1.1c-0.2,0.4-0.5,0.8-0.9,1.2
	c-0.6,0.5-1.1,0.8-1.7,0.9c-0.5,0.1-1,0.1-1.5-0.1c-0.4-0.1-0.9-0.4-1.3-0.7c-1.4-1.2-1.5-2-2.2-2c-0.7,0-0.7,0.8-1.7,1.8
	c-0.3,0.3-0.6,0.5-0.9,0.7c-0.3,0.2-0.7,0.4-1,0.4c-0.4,0.1-0.8,0-1.2-0.1c-0.4-0.1-0.8-0.4-1.3-0.8c-0.4-0.4-0.7-0.7-0.9-1.2
	c-0.2-0.4-0.3-0.7-0.3-1.2c0-0.4,0-0.7,0.1-1c0.1-0.4,0.4-0.7,0.5-1c0.8-1.2,1.6-1.2,1.6-2c0-0.9-0.9-0.8-1.9-2.2
	c-0.2-0.3-0.4-0.6-0.6-0.9c-0.1-0.4-0.2-0.7-0.1-1.1c0-0.4,0.1-0.7,0.3-1.1c0.2-0.4,0.6-0.7,1.1-1.2c0.4-0.3,0.9-0.5,1.3-0.7
	c0.4-0.1,0.9-0.1,1.2-0.1c0.4,0.1,0.8,0.2,1.2,0.4c0.4,0.2,0.7,0.4,0.9,0.7c1.2,0.9,1.1,1.7,1.7,1.7C22.4,31.4,22.7,30.5,23.6,29.5z
	"/>
<path class="st0" d="M6.5,28.4c0.8,0,1.5,0.1,2,0.1c0.6,0.1,1.1,0.2,1.5,0.4c0.4,0.1,0.8,0.2,1.1,0.4c0.3,0.1,0.5,0.3,0.7,0.5
	c0.4,0.4,0.6,0.7,0.6,1.2s-0.1,0.8-0.2,1.1c-0.2,0.3-0.4,0.5-0.7,0.7c-0.2,0.2-0.6,0.4-0.9,0.5c-0.4,0.1-0.7,0.2-1.1,0.3
	c-2.9,0.5-0.7,0.7-0.1,1.4c0.2,0.2,0.3,0.6,0.3,0.9c0,0.4-0.1,0.7-0.4,1c-0.5,0.6-2.3,0.7-0.2,1.2c0.5,0.1,0.9,0.2,1.3,0.3
	c0.4,0.1,0.7,0.3,0.9,0.4c0.2,0.1,0.4,0.3,0.6,0.5c0.4,0.4,0.5,0.8,0.5,1.2c0,0.4-0.1,0.7-0.3,0.9c-0.1,0.2-0.4,0.4-0.7,0.6
	c-0.2,0.2-0.5,0.4-0.9,0.4c-0.4,0.1-0.7,0.2-1,0.4c-0.8,0.1-1.7,0.2-2.8,0.2c-0.8,0.1-1.5,0-2.1-0.1c-0.6-0.1-1.1-0.1-1.5-0.3
	c-0.4-0.1-0.9-0.3-1.2-0.5c-0.4-0.1-0.7-0.3-0.8-0.5c-0.5-0.4-0.9-0.9-1-1.5C0.1,39.2,0,38.2,0,37.2c0-0.9,0-1.8,0.1-2.7
	c0.1-0.9,0.1-1.9,0.3-2.8c0.1-0.4,0.2-0.9,0.4-1.2c0.2-0.4,0.5-0.7,0.8-0.9c0.3-0.2,0.7-0.4,1-0.6c0.4-0.1,0.7-0.3,1.1-0.4
	C4.6,28.5,5.5,28.3,6.5,28.4z"/>
<path class="st0" d="M20.4,24.7c-0.5,0.1-1.1,0.2-1.7,0.3c-0.5,0-1,0-1.7-0.1c-0.6-0.1-1.2-0.3-1.8-0.6c-1.9-0.9-2.8-1.4-3.6-1.3
	c-0.9,0-1.6,0.5-3.2,1.3c-0.6,0.3-1.2,0.5-1.8,0.6C6,25,5.4,25,4.9,25c-0.6-0.1-1.2-0.1-1.7-0.3c-0.4-0.1-0.9-0.4-1.2-0.6
	c-0.4-0.2-0.7-0.5-0.9-0.8c-0.2-0.3-0.4-0.6-0.5-0.9c-0.1-0.4-0.3-0.7-0.4-1C0.1,20.6,0,19.8,0,19c0.1-1.5,0.3-2.8,0.6-4
	c0.3-1.2,0.7-2.3,1.1-3.3c0.5-0.9,0.9-1.9,1.5-2.7c0.5-0.8,1-1.5,1.5-2.2C5.5,5.8,6.2,5.1,7,4.6c0.8-0.5,1.6-0.9,2.3-1.2
	C10,3.2,10.5,3.1,11,3.1c0.5,0,0.7-0.1,0.8-0.1c0.1,0,0.4,0.1,0.8,0.1c0.4,0,1,0.1,1.7,0.4c0.7,0.3,1.5,0.7,2.3,1.2
	c0.8,0.5,1.6,1.2,2.4,2.2c0.5,0.7,1,1.4,1.5,2.2c0.5,0.8,1,1.7,1.5,2.7c0.4,1,0.8,2.1,1.2,3.3c0.3,1.2,0.4,2.5,0.5,4
	c0.1,0.9,0,1.7-0.1,2.4c-0.1,0.4-0.2,0.7-0.4,1c-0.1,0.4-0.3,0.7-0.6,0.9c-0.2,0.3-0.5,0.6-0.8,0.8C21.3,24.3,20.9,24.6,20.4,24.7z"
	/>
</svg>
